<?xml version="1.0" standalone="no"?>
<!DOCTYPE svg PUBLIC "-//W3C//DTD SVG 20010904//EN"
 "http://www.w3.org/TR/2001/REC-SVG-20010904/DTD/svg10.dtd">
<svg version="1.0" xmlns="http://www.w3.org/2000/svg"
 width="640.000000pt" height="640.000000pt" viewBox="0 0 640.000000 640.000000"
 preserveAspectRatio="xMidYMid meet">

<g transform="translate(0.000000,640.000000) scale(0.100000,-0.100000)"
fill="#000000" stroke="none">
<path d="M0 5574 c0 -662 2 -824 13 -816 6 6 43 57 82 114 60 89 125 177 160
214 17 18 121 136 171 195 240 277 388 425 519 517 44 30 100 72 125 92 43 36
188 130 298 194 29 17 101 60 160 95 59 35 150 87 203 115 53 28 112 63 130
78 l34 27 -947 1 -948 0 0 -826z m1569 719 c2 -1 -7 -11 -20 -22 -16 -14 -19
-20 -9 -21 10 0 11 -3 3 -11 -6 -6 -44 -11 -84 -11 -41 0 -80 -5 -86 -10 -9
-7 -13 -7 -13 0 0 16 38 25 77 17 33 -6 35 -5 19 10 -21 21 -22 21 19 23 26 2
35 -1 35 -13 0 -8 4 -15 9 -15 5 0 7 9 4 20 -4 14 0 20 11 20 9 0 16 5 16 11
0 6 -7 9 -14 6 -10 -4 -13 -1 -9 9 4 12 8 12 22 2 9 -7 18 -14 20 -15z m26 17
c4 -6 12 -7 18 -4 9 5 9 4 0 -6 -9 -10 -15 -10 -28 4 -9 9 -12 16 -6 16 5 0
13 -5 16 -10z m-10 -40 c-3 -5 -12 -10 -18 -10 -7 0 -6 4 3 10 19 12 23 12 15
0z m-155 -60 c0 -5 -7 -10 -15 -10 -13 0 -33 -25 -33 -44 -1 -14 -50 -36 -54
-24 -4 12 -48 -11 -48 -26 0 -4 7 -3 15 4 9 7 18 10 21 8 6 -7 -58 -48 -74
-48 -6 0 -21 -10 -32 -22 -15 -16 -19 -18 -15 -6 6 15 4 16 -19 5 -17 -8 -21
-13 -11 -15 8 -2 13 -8 9 -13 -4 -6 -11 -5 -20 2 -8 6 -18 9 -21 5 -4 -4 -1
-11 6 -15 8 -5 9 -11 3 -15 -14 -8 -24 24 -12 39 5 6 29 20 52 31 24 10 54 31
66 47 16 17 38 29 64 33 22 4 35 10 28 14 -8 5 -6 11 5 20 13 11 15 9 15 -9 0
-11 4 -21 9 -21 5 0 7 10 4 21 -4 15 0 27 12 35 22 16 45 18 45 4z m40 -8 c0
-5 -16 -16 -36 -25 -26 -13 -35 -14 -32 -5 3 7 14 14 26 16 12 2 22 8 22 13 0
5 5 9 10 9 6 0 10 -4 10 -8z m-640 -169 c0 -22 -5 -33 -14 -33 -8 0 -16 -8
-18 -17 -2 -14 -7 -12 -21 10 -15 23 -15 27 -2 27 8 0 18 12 21 28 4 15 9 31
12 36 8 14 22 -17 22 -51z m55 -33 c-16 -17 -16 -20 -2 -20 9 0 19 5 22 10 3
6 17 10 31 10 21 0 24 -5 24 -34 0 -19 3 -43 6 -53 6 -15 4 -16 -7 -5 -20 18
-33 15 -14 -4 25 -25 9 -29 -21 -5 -14 11 -31 18 -37 14 -6 -4 -3 -9 9 -14 17
-7 17 -8 1 -8 -10 -1 -15 -6 -12 -11 4 -6 16 -8 28 -4 19 6 20 5 9 -9 -8 -9
-21 -13 -30 -10 -14 4 -14 3 -3 -5 10 -7 22 -5 40 6 48 30 74 52 61 52 -7 0
-11 2 -8 5 3 3 12 3 21 -1 21 -8 -28 -50 -151 -134 -51 -35 -102 -74 -112 -88
l-20 -25 0 27 c0 16 4 25 10 21 6 -4 33 13 62 36 28 24 46 45 39 47 -6 2 -11
12 -11 23 0 10 -4 19 -10 19 -5 0 -10 20 -10 45 0 25 4 45 8 45 18 0 57 43 45
47 -20 7 -15 23 7 23 11 0 20 5 20 10 0 6 5 10 12 10 6 0 3 -9 -7 -20z m230
-10 c4 -6 -1 -7 -11 -3 -10 4 -15 2 -11 -3 4 -7 -6 -8 -26 -5 -31 4 -31 5 -7
12 36 10 48 10 55 -1z m-45 -29 c0 -5 -6 -14 -14 -20 -12 -10 -13 -8 -9 8 5
21 23 30 23 12z m-262 -183 c-5 -10 -15 -18 -22 -18 -8 0 -19 -7 -26 -15 -16
-19 -26 -19 -33 -1 -4 9 -1 13 7 10 19 -7 66 34 67 59 0 21 1 21 8 2 5 -11 4
-28 -1 -37z m-141 -121 c-6 -19 -23 -18 -23 2 0 11 5 17 14 14 7 -3 11 -10 9
-16z m43 14 c0 -5 -19 -26 -42 -47 -24 -20 -36 -33 -28 -28 8 4 -5 -11 -29
-35 -24 -24 -54 -44 -67 -45 -17 -1 -20 -4 -12 -14 8 -9 8 -16 1 -23 -8 -8
-13 -5 -17 9 -4 11 -13 23 -21 26 -10 4 -8 -4 6 -24 l22 -29 -46 -53 c-26 -29
-90 -102 -143 -163 -52 -60 -101 -112 -107 -114 -7 -2 5 14 25 36 21 21 38 42
38 47 0 4 9 21 21 37 11 16 17 34 13 40 -4 8 -3 9 4 5 18 -11 37 4 21 16 -11
8 -11 9 1 5 9 -3 26 4 39 14 21 17 21 19 5 19 -12 0 -15 3 -8 8 27 17 24 47
-6 67 -24 16 -30 27 -30 58 0 25 -4 37 -14 37 -8 0 -16 -5 -18 -12 -9 -26 -28
6 -28 48 0 32 4 44 15 44 8 0 15 -7 15 -15 0 -11 11 -15 40 -15 22 0 40 -4 40
-10 0 -5 18 -10 40 -10 22 0 40 5 40 10 0 6 21 10 46 10 38 0 45 3 40 16 -3 8
-2 12 4 9 5 -3 21 2 35 11 14 9 25 13 25 9 0 -3 14 3 31 15 17 13 28 28 25 36
-3 8 1 14 9 14 8 0 15 -4 15 -9z m-341 -334 c0 -8 -2 -8 -6 1 -4 10 -9 9 -24
-4 -23 -21 -26 -12 -3 10 16 17 35 13 33 -7z"/>
<path d="M1465 6250 c3 -5 12 -7 20 -3 21 7 19 13 -6 13 -11 0 -18 -4 -14 -10z"/>
<path d="M835 5831 c-3 -5 -1 -12 4 -15 5 -3 11 1 15 9 6 16 -9 21 -19 6z"/>
<path d="M585 5570 c-10 -11 -13 -20 -8 -20 13 0 38 29 31 35 -3 3 -13 -4 -23
-15z"/>
<path d="M1995 6301 c-280 -161 -627 -397 -745 -507 -25 -23 -60 -49 -78 -58
-27 -14 -133 -92 -222 -163 -8 -7 -71 -56 -140 -111 -69 -54 -143 -121 -166
-148 -86 -104 -325 -416 -429 -559 -60 -82 -133 -182 -162 -221 l-53 -71 0
-2231 0 -2232 1368 0 c886 0 1362 4 1352 10 -8 5 -10 10 -4 10 5 0 15 -5 21
-11 6 -6 21 -9 34 -7 22 3 20 7 -34 62 -57 58 -58 60 -39 79 11 10 48 37 83
60 55 36 64 47 67 75 3 31 5 33 34 27 17 -4 182 -7 367 -7 322 0 342 2 466 27
72 14 138 28 148 31 16 5 17 1 12 -29 -4 -19 -2 -43 3 -54 12 -21 17 -24 225
-122 81 -38 147 -72 147 -76 0 -3 -17 -21 -37 -40 l-37 -34 1112 -1 1112 0 0
1114 c0 613 -4 1116 -8 1118 -5 2 -12 17 -15 33 l-6 30 14 -30 14 -30 1 34 c0
21 -7 39 -17 47 -17 13 -17 14 0 8 16 -6 17 49 17 1065 0 589 -3 1071 -8 1071
-4 0 -12 -10 -17 -22 -6 -11 -25 -29 -43 -39 -19 -9 -42 -25 -53 -34 -25 -24
-91 -34 -156 -26 -51 7 -53 7 -48 -13 6 -21 6 -21 -9 -2 -9 11 -16 26 -16 33
0 7 -4 13 -9 13 -9 0 -58 112 -86 198 -12 36 -15 68 -11 95 9 57 56 197 66
197 4 0 11 12 15 27 5 21 8 24 16 12 6 -9 9 -10 9 -1 0 6 5 12 11 12 8 0 8 -5
-1 -15 -7 -8 -16 -12 -21 -9 -5 3 -9 1 -9 -5 0 -16 18 -22 23 -9 4 10 8 10 15
-1 7 -9 11 -10 13 -2 3 7 11 13 19 15 8 1 24 7 35 12 46 24 166 3 225 -38 13
-10 28 -18 32 -18 5 0 8 135 8 301 l0 301 -92 -3 c-51 -1 -97 -5 -103 -9 -15
-11 -59 -20 -49 -10 5 4 18 10 29 13 11 3 -10 5 -47 6 -54 1 -67 4 -71 19 -4
16 -5 16 -6 0 -1 -25 -38 -23 -46 2 -4 11 -5 48 -4 83 1 34 -1 63 -4 65 -18 6
-47 0 -60 -13 -8 -8 -17 -11 -21 -8 -3 3 -40 8 -82 10 -54 3 -74 1 -69 -7 4
-7 18 -9 32 -6 29 8 51 -3 32 -15 -21 -13 -57 -11 -63 4 -3 8 -8 7 -16 -5 -6
-10 -17 -18 -25 -18 -21 0 -30 -21 -14 -32 10 -6 7 -7 -10 -3 -16 5 -21 4 -17
-4 4 -6 16 -11 26 -11 10 0 22 -5 26 -11 4 -8 -1 -9 -17 -4 -13 5 -28 8 -34 8
-29 0 -45 -4 -45 -12 0 -10 32 -9 40 1 3 4 12 3 20 -2 10 -6 7 -10 -16 -16
-16 -4 -35 -11 -42 -17 -10 -8 -16 -7 -22 2 -6 10 -9 9 -14 -7 -6 -17 -18 -22
-64 -27 -79 -9 -75 -9 -95 0 -15 6 -16 10 -5 16 10 7 9 9 -5 9 -11 0 -15 4
-11 12 4 6 3 8 -3 5 -5 -4 -22 7 -37 22 -20 21 -24 30 -14 35 7 3 3 3 -8 1
-23 -6 -54 29 -54 61 0 14 3 14 15 4 9 -8 12 -16 6 -19 -6 -4 -4 -13 3 -23 11
-15 12 -12 12 20 -1 36 -3 38 -35 39 -21 0 -29 -2 -20 -8 7 -4 11 -11 8 -14
-4 -3 -18 10 -32 29 -15 19 -34 41 -43 50 -8 9 -11 16 -5 16 5 0 19 -12 30
-26 12 -15 21 -22 21 -17 0 19 -38 53 -59 53 -16 0 -21 6 -21 28 0 19 3 23 9
13 6 -9 11 -10 15 -2 4 6 12 11 17 11 6 0 7 -5 3 -11 -4 -8 1 -9 16 -4 20 6
22 4 18 -18 -4 -20 -1 -23 14 -19 10 2 18 -1 18 -7 0 -6 10 -15 23 -20 17 -6
26 -3 40 12 9 11 17 24 17 29 0 4 7 8 16 8 9 0 30 15 48 34 32 32 33 35 19 67
-7 18 -10 35 -6 38 15 11 12 29 -7 46 -17 16 -20 31 -20 116 0 75 4 101 16
113 8 9 17 26 19 38 8 40 27 78 36 72 5 -3 9 6 9 20 0 17 9 30 28 40 15 8 23
15 19 16 -5 0 1 13 12 29 12 16 21 39 21 50 0 21 -3 21 -240 21 -132 0 -240
-2 -240 -5 0 -3 9 -23 20 -45 11 -22 20 -49 20 -62 0 -34 -24 -128 -32 -128
-5 0 -8 -11 -8 -25 0 -14 -4 -25 -8 -25 -5 0 -19 -19 -32 -42 -27 -48 -39 -62
-60 -71 -12 -4 -11 -6 3 -6 9 -1 17 -8 17 -16 0 -12 -4 -13 -19 -5 -11 5 -27
10 -37 10 -16 0 -16 -1 0 -19 10 -11 32 -26 49 -35 19 -9 25 -16 15 -16 -11 0
-15 -5 -12 -15 3 -8 9 -14 12 -13 22 2 32 -4 32 -22 l0 -21 -22 20 c-11 11
-26 18 -31 14 -6 -3 -7 -1 -3 6 4 6 1 18 -8 26 -17 18 -30 20 -20 3 4 -7 3 -8
-4 -4 -6 4 -9 13 -5 21 4 13 -7 20 -29 16 -4 0 -5 6 -1 15 3 8 2 14 -3 13 -17
-4 -44 13 -37 24 3 5 2 8 -3 4 -14 -8 -47 20 -38 34 4 8 3 10 -4 5 -6 -4 -20
1 -30 11 -10 10 -32 29 -50 42 -17 13 -29 27 -26 32 3 5 -3 6 -12 2 -13 -5
-16 -3 -11 10 4 11 -1 18 -16 23 -28 9 -66 36 -67 48 0 5 7 3 15 -4 24 -20 31
-3 9 21 -19 21 -19 22 1 16 18 -6 20 -2 22 35 2 26 13 56 29 80 15 21 25 41
22 43 -3 3 -108 4 -234 3 l-229 -3 49 -30 c59 -36 266 -191 396 -297 107 -87
242 -214 351 -333 179 -195 268 -292 293 -322 l27 -32 -38 -11 c-21 -5 -54
-13 -73 -16 -40 -7 -22 -23 -262 241 -200 220 -580 570 -668 615 -25 13 -56
31 -70 42 -37 27 -194 84 -329 119 l-113 29 -847 0 -846 -1 -170 -98z m3141
-478 c16 -6 20 -53 4 -53 -5 0 -10 12 -10 28 0 15 -4 23 -8 17 -4 -5 -14 -11
-22 -13 -13 -2 -13 -1 0 10 8 7 15 22 14 33 -1 16 0 17 3 2 3 -10 11 -21 19
-24z m-41 7 c-3 -5 -12 -10 -18 -10 -7 0 -6 4 3 10 19 12 23 12 15 0z m96 -98
c-6 -11 -8 -22 -6 -26 3 -3 2 -4 -2 -1 -10 8 -11 45 -1 39 4 -3 8 0 8 7 0 7 3
10 6 7 3 -4 1 -15 -5 -26z m724 -154 c4 -4 -10 -18 -32 -32 -41 -27 -127 -61
-118 -47 3 5 -1 12 -7 15 -7 3 -1 4 13 1 17 -3 31 1 39 11 7 8 19 13 26 10 8
-3 13 -2 13 2 -3 18 2 32 12 32 5 0 7 -4 4 -10 -3 -5 -1 -10 4 -10 17 0 13 18
-6 28 -13 8 -10 9 14 8 18 -1 35 -4 38 -8z m50 -213 c0 -102 -3 -185 -7 -185
-17 0 -32 84 -32 182 -1 60 -5 108 -10 108 -5 0 -41 -18 -81 -40 -58 -32 -118
-51 -296 -96 -123 -31 -232 -60 -241 -65 -10 -6 -18 -6 -18 -2 0 4 -3 18 -6
31 -5 19 -2 22 20 22 55 0 350 72 434 105 63 26 237 117 237 125 0 0 0 -83 0
-185z m-530 -206 c79 -29 236 -173 301 -274 43 -68 74 -63 176 25 81 70 98 80
98 59 0 -26 -168 -167 -208 -175 -36 -7 -54 2 -85 43 -52 71 -245 266 -292
295 -49 30 -63 36 -97 37 -10 1 -18 6 -18 11 0 14 58 4 125 -21z m178 -36 c36
-58 39 -63 33 -63 -7 0 -100 81 -104 91 -2 5 8 9 22 9 19 0 32 -10 49 -37z
m129 16 c42 0 48 -2 30 -9 -18 -8 -21 -15 -17 -37 4 -23 4 -24 -4 -8 -9 18
-10 18 -10 -6 -1 -29 14 -39 56 -39 25 0 26 -1 20 -50 -6 -46 4 -68 16 -37 3
6 6 3 6 -8 1 -16 3 -17 10 -6 5 8 7 20 4 27 -3 8 6 18 22 24 43 16 47 12 13
-20 -17 -16 -28 -30 -25 -30 3 0 -6 -12 -21 -27 l-27 -28 -25 40 c-13 22 -24
43 -22 48 1 4 -2 7 -8 7 -6 0 -6 9 0 25 11 28 -4 44 -18 19 -8 -15 -10 -15
-15 0 -4 10 -3 15 3 11 6 -3 10 -1 10 4 0 6 -6 11 -12 11 -15 1 -53 49 -45 57
3 2 10 -5 17 -16 6 -12 16 -21 22 -21 6 0 3 11 -7 26 -16 25 -16 26 3 20 12
-4 24 -2 28 5 5 9 -2 11 -29 6 -21 -3 -37 -2 -37 4 0 5 -5 8 -11 7 -6 -2 -14
3 -16 10 -4 11 -1 12 15 3 11 -6 45 -11 74 -12z m118 -134 c0 -8 -4 -15 -10
-15 -5 0 -10 7 -10 15 0 8 5 15 10 15 6 0 10 -7 10 -15z m-2117 -158 c-6 -29
17 -40 120 -61 94 -20 94 -20 202 -72 133 -65 257 -162 388 -303 38 -41 57
-53 85 -56 21 -2 39 -4 42 -5 3 0 -3 -5 -12 -11 -10 -5 -18 -15 -18 -22 0 -20
367 -385 470 -468 129 -105 267 -183 339 -195 26 -4 41 -12 41 -21 0 -8 5 -69
11 -135 6 -66 8 -135 5 -153 l-7 -34 -101 102 -101 102 64 57 c34 32 60 61 55
65 -4 4 -60 6 -124 4 -114 -3 -118 -2 -147 24 -110 97 -226 155 -422 209 -233
65 -474 9 -655 -154 -76 -68 -76 -85 -3 -77 30 3 54 3 51 -1 -13 -23 -56 -125
-70 -165 -18 -54 -21 -87 -6 -87 5 0 56 39 112 86 125 105 211 150 310 165
219 31 378 -42 638 -294 187 -181 294 -325 341 -456 22 -62 22 -64 6 -150 -9
-47 -21 -121 -27 -165 -6 -43 -12 -81 -15 -85 -2 -4 -9 -50 -15 -102 -6 -52
-22 -148 -35 -214 -24 -120 -55 -319 -81 -515 -8 -58 -17 -184 -21 -282 l-6
-176 -61 -44 c-83 -60 -179 -120 -262 -162 -70 -35 -599 -226 -628 -226 -27 0
-210 -61 -225 -76 -8 -7 -26 -50 -41 -96 l-27 -83 -84 -17 c-46 -10 -154 -23
-239 -29 -188 -14 -602 -17 -722 -6 l-87 9 -25 41 c-14 23 -41 60 -60 82 l-35
40 -283 1 c-281 1 -284 1 -413 32 -71 17 -161 42 -200 56 -133 47 -280 104
-346 134 -65 29 -66 31 -108 113 -24 46 -67 120 -96 164 -29 44 -71 114 -93
155 -22 41 -54 102 -72 135 -42 79 -75 163 -149 380 -51 150 -63 201 -75 305
-8 69 -13 127 -10 129 2 2 21 -4 43 -14 44 -19 65 -13 56 16 -5 15 -1 19 14
19 12 0 21 3 21 6 0 3 -14 45 -31 92 -53 151 -39 257 54 407 128 207 271 370
438 502 176 138 276 177 452 174 61 -1 104 -9 197 -40 105 -34 128 -46 194
-100 68 -55 106 -74 106 -53 0 4 -14 27 -31 52 -16 25 -41 66 -54 91 -13 25
-31 51 -39 58 -24 20 -19 31 13 31 16 0 34 6 40 13 24 30 -86 93 -214 122
-107 25 -289 37 -362 25 -68 -11 -205 -65 -262 -103 -20 -14 -54 -33 -76 -45
-22 -11 -92 -65 -155 -120 l-114 -100 -94 -1 c-52 -1 -98 -4 -103 -7 -26 -15
-2 15 54 70 34 34 77 87 96 116 144 230 239 403 385 704 99 202 175 346 183
346 25 0 133 60 133 74 0 10 17 16 53 19 28 2 129 29 222 60 173 56 225 77
225 89 0 3 -18 21 -40 38 -23 18 -39 35 -36 37 8 8 73 -17 101 -39 34 -27 53
-17 57 29 l3 38 38 -57 c25 -38 44 -58 57 -58 22 0 25 16 10 56 -6 15 -9 28
-7 30 2 2 38 -30 80 -71 43 -41 85 -75 95 -75 9 0 29 20 45 45 27 42 85 100
93 92 2 -2 -1 -18 -7 -36 -11 -32 -7 -61 9 -61 5 0 31 21 58 48 45 43 49 45
52 25 4 -29 30 -30 83 -3 22 12 44 18 49 15 5 -3 20 0 32 6 32 17 41 18 348
25 238 6 280 9 310 25 47 24 58 23 53 -4z m2231 -451 c19 -43 95 -343 121
-476 19 -102 41 -199 66 -299 16 -63 19 -113 19 -318 0 -134 -4 -243 -8 -243
-8 0 -26 120 -52 341 -6 47 -17 108 -24 135 -34 118 -120 396 -147 478 -16 49
-43 144 -60 210 -36 146 -33 199 17 326 4 9 15 -10 29 -50 12 -36 30 -82 39
-104z m-5111 -1226 c28 -17 62 -39 75 -50 l23 -19 -74 -113 c-41 -63 -83 -129
-93 -148 l-19 -35 -3 60 c-5 89 20 335 34 335 2 0 28 -14 57 -30z m3692 -2545
c-23 -8 -85 -10 -85 -3 0 4 21 8 48 7 26 0 43 -2 37 -4z m-168 -11 c-3 -3 -12
-4 -19 -1 -8 3 -5 6 6 6 11 1 17 -2 13 -5z m-70 -10 c-3 -3 -12 -4 -19 -1 -8
3 -5 6 6 6 11 1 17 -2 13 -5z m270 0 c-3 -3 -12 -4 -19 -1 -8 3 -5 6 6 6 11 1
17 -2 13 -5z m138 -4 c3 -6 -1 -7 -9 -4 -18 7 -21 14 -7 14 6 0 13 -4 16 -10z
m-248 -16 c-3 -3 -12 -4 -19 -1 -8 3 -5 6 6 6 11 1 17 -2 13 -5z m110 0 c-3
-3 -12 -4 -19 -1 -8 3 -5 6 6 6 11 1 17 -2 13 -5z m46 -11 c-7 -2 -19 -2 -25
0 -7 3 -2 5 12 5 14 0 19 -2 13 -5z m294 -9 c-3 -3 -12 -4 -19 -1 -8 3 -5 6 6
6 11 1 17 -2 13 -5z m-3057 -29 c-7 -8 -17 -15 -23 -15 -6 0 -2 7 9 15 25 19
30 19 14 0z m30 -15 c-8 -5 -19 -10 -25 -10 -5 0 -3 5 5 10 8 5 20 10 25 10 6
0 3 -5 -5 -10z m3080 -15 c7 -9 8 -15 2 -15 -5 0 -12 7 -16 15 -3 8 -4 15 -2
15 2 0 9 -7 16 -15z m-3230 -85 c-6 -12 -14 -20 -17 -17 -2 3 1 14 8 26 7 11
15 18 17 16 2 -2 -2 -13 -8 -25z m3320 0 c0 -5 -2 -10 -4 -10 -3 0 -8 5 -11
10 -3 6 -1 10 4 10 6 0 11 -4 11 -10z m42 -47 c7 -9 7 -13 0 -13 -12 0 -22 25
-21 48 1 13 3 12 6 -3 3 -11 10 -26 15 -32z m-372 17 c0 -5 -5 -10 -11 -10 -5
0 -7 5 -4 10 3 6 8 10 11 10 2 0 4 -4 4 -10z m57 -12 c-3 -8 -6 -5 -6 6 -1 11
2 17 5 13 3 -3 4 -12 1 -19z m320 -50 c-3 -8 -6 -5 -6 6 -1 11 2 17 5 13 3 -3
4 -12 1 -19z m-3362 2 c3 -5 1 -10 -4 -10 -6 0 -11 5 -11 10 0 6 2 10 4 10 3
0 8 -4 11 -10z m2960 -20 c-3 -5 -14 -10 -23 -9 -14 0 -13 2 3 9 27 11 27 11
20 0z m-185 -94 c0 -3 -4 -8 -10 -11 -5 -3 -10 -1 -10 4 0 6 5 11 10 11 6 0
10 -2 10 -4z m617 -43 c-3 -10 -5 -4 -5 12 0 17 2 24 5 18 2 -7 2 -21 0 -30z
m-2742 8 c3 -5 2 -12 -3 -15 -5 -3 -9 1 -9 9 0 17 3 19 12 6z m2050 -11 c-3
-5 -12 -10 -18 -10 -7 0 -6 4 3 10 19 12 23 12 15 0z m375 -14 c0 -2 -7 -7
-16 -10 -8 -3 -12 -2 -9 4 6 10 25 14 25 6z m-416 -25 c-10 -10 -21 -16 -24
-14 -3 3 4 11 14 19 28 20 33 17 10 -5z m426 -1 c-24 -15 -36 -11 -14 4 10 8
21 12 24 10 2 -3 -2 -9 -10 -14z m-2845 0 c3 -5 2 -10 -4 -10 -5 0 -13 5 -16
10 -3 6 -2 10 4 10 5 0 13 -4 16 -10z m562 4 c-3 -3 -12 -4 -19 -1 -8 3 -5 6
6 6 11 1 17 -2 13 -5z m2304 -14 c-13 -11 -28 -20 -35 -20 -6 0 3 9 19 19 39
25 46 25 16 1z m-2256 0 c3 -6 -1 -7 -9 -4 -18 7 -21 14 -7 14 6 0 13 -4 16
-10z m1845 -4 c0 -3 -4 -8 -10 -11 -5 -3 -10 -1 -10 4 0 6 5 11 10 11 6 0 10
-2 10 -4z m-1845 -26 c3 -6 -1 -7 -9 -4 -18 7 -21 14 -7 14 6 0 13 -4 16 -10z
m2171 -22 c-9 -5 -23 -5 -32 0 -12 6 -7 9 16 9 23 0 28 -3 16 -9z m125 -15
c-12 -20 -14 -14 -5 12 4 9 9 14 11 11 3 -2 0 -13 -6 -23z m-2247 -23 c-6 -6
-10 -3 -10 10 0 13 4 16 10 10 7 -7 7 -13 0 -20z m2483 8 c-3 -8 -6 -5 -6 6
-1 11 2 17 5 13 3 -3 4 -12 1 -19z m-2437 -2 c0 -2 -8 -10 -17 -17 -16 -13
-17 -12 -4 4 13 16 21 21 21 13z m2173 -11 c-3 -9 -8 -14 -10 -11 -3 3 -2 9 2
15 9 16 15 13 8 -4z m-176 -1 c-3 -3 -12 -4 -19 -1 -8 3 -5 6 6 6 11 1 17 -2
13 -5z"/>
<path d="M5790 4952 c0 -15 27 -45 32 -36 3 5 -3 17 -14 27 -10 9 -18 13 -18
9z"/>
<path d="M4060 4154 c-87 -26 -217 -92 -155 -79 17 3 71 15 120 25 114 24 272
26 346 4 124 -37 294 -118 439 -210 l55 -35 -54 51 c-120 114 -336 217 -532
254 -109 20 -117 20 -219 -10z"/>
<path d="M1823 3950 c-193 -66 -386 -199 -519 -356 -68 -81 -83 -104 -69 -104
3 0 54 49 113 109 159 161 340 275 485 305 97 20 293 21 367 1 82 -22 82 -2 0
29 -47 17 -100 28 -158 31 -48 3 -98 7 -112 9 -14 2 -62 -9 -107 -24z"/>
<path d="M4330 3611 c-94 -29 -168 -95 -202 -180 -29 -73 -31 -257 -5 -371 21
-91 77 -232 95 -238 9 -3 10 3 2 24 -11 27 5 103 18 89 3 -3 22 11 43 31 l37
36 19 -22 c66 -82 86 -100 114 -100 16 0 29 5 29 10 0 6 3 9 8 9 4 -1 28 -1
53 0 44 1 51 5 111 66 67 67 86 76 108 50 12 -14 73 -45 205 -105 37 -17 71
-24 103 -21 6 1 12 9 13 19 1 11 4 9 9 -8 19 -60 5 -283 -20 -313 -3 -4 -78
-12 -166 -17 -170 -11 -298 -3 -407 27 -66 18 -87 11 -33 -12 82 -34 229 -47
441 -39 235 10 226 10 290 -21 58 -28 72 -23 30 12 l-30 25 48 -7 c28 -4 47
-2 47 3 0 17 -29 22 -115 22 l-83 0 18 69 c26 96 19 231 -16 342 -45 143 -118
294 -175 362 -65 78 -212 189 -287 217 -125 47 -234 61 -302 41z m188 -284
c22 -26 3 -47 -42 -47 -54 0 -86 21 -70 47 21 34 84 34 112 0z m-291 -369 c-3
-8 -6 -5 -6 6 -1 11 2 17 5 13 3 -3 4 -12 1 -19z m-21 -34 c-4 -9 -9 -15 -11
-12 -3 3 -3 13 1 22 4 9 9 15 11 12 3 -3 3 -13 -1 -22z"/>
<path d="M1766 3378 c-69 -13 -156 -56 -271 -135 -108 -74 -160 -133 -193
-217 -89 -229 -92 -238 -92 -311 0 -40 6 -110 14 -156 8 -46 17 -109 21 -139
7 -61 39 -145 66 -174 32 -34 31 -11 -2 52 -17 34 -33 80 -36 103 -6 45 -9 44
41 23 9 -3 35 16 68 48 87 87 185 196 191 213 9 21 47 19 72 -5 11 -10 48 -29
82 -41 56 -21 65 -21 90 -8 15 8 31 18 35 24 5 7 8 6 8 0 0 -12 35 -12 62 0
10 4 27 32 38 63 36 99 40 105 77 99 18 -3 40 -13 49 -21 8 -9 29 -16 45 -16
19 0 29 -5 29 -15 0 -8 5 -15 10 -15 6 0 10 7 10 15 0 8 5 15 10 15 6 0 10 -8
10 -17 0 -15 2 -14 14 3 17 23 32 13 18 -13 -6 -10 -7 -34 -3 -53 6 -29 9 -31
14 -15 16 52 29 163 23 209 -7 60 -55 189 -98 265 -42 73 -154 190 -203 212
-44 20 -118 23 -199 7z m24 -263 c24 -28 -15 -68 -78 -81 -28 -6 -32 -3 -38
20 -5 20 -1 32 13 46 33 30 84 38 103 15z m457 -287 c-3 -8 -6 -5 -6 6 -1 11
2 17 5 13 3 -3 4 -12 1 -19z"/>
<path d="M4231 2904 c0 -11 3 -14 6 -6 3 7 2 16 -1 19 -3 4 -6 -2 -5 -13z"/>
<path d="M1985 2338 c-59 -30 -235 -97 -325 -123 -25 -7 -124 -15 -225 -18
-142 -4 -192 -10 -238 -25 -32 -11 -61 -22 -64 -26 -16 -15 8 -14 71 5 80 24
94 22 67 -10 -19 -22 -28 -51 -16 -51 2 0 22 19 44 43 l40 42 144 2 c144 3
146 3 279 49 169 59 300 115 306 132 6 19 -18 14 -83 -20z"/>
<path d="M3740 1769 c-132 -71 -197 -86 -500 -115 -188 -17 -301 -14 -473 12
-105 17 -131 13 -76 -10 41 -17 146 -32 285 -42 l101 -7 33 -56 c92 -154 184
-237 313 -282 129 -45 204 -36 261 32 78 92 75 207 -8 324 -19 27 -33 51 -31
54 2 3 46 28 98 56 52 27 100 57 106 67 18 30 -6 22 -109 -33z m-170 -103 c0
-3 -4 -8 -10 -11 -5 -3 -10 -1 -10 4 0 6 5 11 10 11 6 0 10 -2 10 -4z m45 -6
c3 -5 2 -10 -4 -10 -5 0 -13 5 -16 10 -3 6 -2 10 4 10 5 0 13 -4 16 -10z
m-185 -52 c0 -12 -10 -9 -26 6 -20 21 -17 28 6 14 11 -7 20 -16 20 -20z m-185
2 c-27 -12 -43 -12 -25 0 8 5 22 9 30 9 10 0 8 -3 -5 -9z m134 -8 c6 -12 5
-25 -5 -42 -7 -14 -13 -21 -14 -17 0 5 4 17 10 27 7 14 6 23 -6 34 -8 9 -11
16 -5 16 6 0 15 -8 20 -18z m311 -66 c0 -5 -9 3 -20 17 -11 14 -20 31 -20 39
0 7 9 0 20 -17 11 -16 20 -34 20 -39z m-546 38 c5 -14 4 -15 -9 -4 -17 14 -19
20 -6 20 5 0 12 -7 15 -16z m320 1 c11 -8 18 -17 15 -19 -2 -2 -15 4 -28 15
-27 22 -15 26 13 4z m-62 -27 c-7 -7 -12 -8 -12 -2 0 14 12 26 19 19 2 -3 -1
-11 -7 -17z m31 -11 c3 -7 -3 -13 -14 -13 -13 0 -15 3 -7 13 6 7 12 13 13 13
2 0 5 -6 8 -13z m-203 -82 c7 -9 11 -17 8 -20 -2 -2 -12 4 -21 15 -9 11 -13
20 -8 20 5 0 14 -7 21 -15z m477 -17 c-3 -7 -5 -2 -5 12 0 14 2 19 5 13 2 -7
2 -19 0 -25z m-386 -70 c9 -10 21 -18 27 -18 6 0 14 -4 17 -10 10 -16 -29 3
-66 33 -20 16 -26 25 -14 20 11 -3 27 -15 36 -25z m349 -32 c0 -3 -4 -8 -10
-11 -5 -3 -10 -1 -10 4 0 6 5 11 10 11 6 0 10 -2 10 -4z m-235 -36 c3 -6 -1
-7 -9 -4 -18 7 -21 14 -7 14 6 0 13 -4 16 -10z m215 6 c0 -2 -9 -6 -20 -9 -11
-3 -18 -1 -14 4 5 9 34 13 34 5z"/>
<path d="M5887 5852 c-10 -10 -17 -35 -17 -55 0 -26 -4 -37 -15 -37 -8 0 -15
-7 -15 -15 0 -11 11 -15 40 -15 38 0 46 8 41 42 -1 10 59 68 70 68 5 0 9 7 9
15 0 23 -92 21 -113 -3z"/>
<path d="M6032 5500 c0 -14 2 -19 5 -12 2 6 2 18 0 25 -3 6 -5 1 -5 -13z"/>
<path d="M5400 5490 c0 -5 5 -10 11 -10 5 0 7 5 4 10 -3 6 -8 10 -11 10 -2 0
-4 -4 -4 -10z"/>
</g>
</svg>
